<svg width="50" height="50" viewBox="0 0 50 50" fill="none" xmlns="http://www.w3.org/2000/svg">
<path d="M39.7293 39.7292C47.8752 31.5833 47.8752 18.3958 39.7293 10.2708M10.271 10.2708C2.12516 18.4167 2.12516 31.6042 10.271 39.7292M18.1252 44.6042C20.3543 45.375 22.6668 45.75 25.0002 45.75C27.3335 45.7292 29.646 45.375 31.8752 44.6042M18.1252 5.39583C20.3543 4.625 22.6668 4.25 25.0002 4.25C27.3335 4.25 29.646 4.625 31.8752 5.39583" stroke="#EBEBEB" stroke-width="4" stroke-linecap="round" stroke-linejoin="round"/>
<path d="M18.2085 25V21.5208C18.2085 17.1875 21.271 15.4166 25.021 17.5833L28.0418 19.3333L31.0627 21.0833C34.8127 23.25 34.8127 26.7916 31.0627 28.9583L28.0418 30.7083L25.021 32.4583C21.271 34.625 18.2085 32.8541 18.2085 28.5208V25Z" stroke="#EBEBEB" stroke-width="4" stroke-miterlimit="10" stroke-linecap="round" stroke-linejoin="round"/>
</svg>
